<?xml version="1.0" encoding="utf-8"?>
<svg version="1.1" id="Layer_1" xmlns="http://www.w3.org/2000/svg" xmlns:xlink="http://www.w3.org/1999/xlink" x="0px" y="0px"
	 viewBox="0 0 96 96" style="enable-background:new 0 0 96 96;" xml:space="preserve">
<style type="text/css">
	.st0{fill:#0066FF;}  /* Changed to iOS-style blue */
</style>
<path class="st0" d="M18.81,81.4c-7.58,0.11-14.93-5.8-15.84-14.26c-0.39-3.61,0.35-6.97,2.24-10.06
	c7.52-12.28,15.06-24.56,22.62-36.82c1.92-3.11,4.76-4.54,8.41-4.22c3.26,0.29,5.59,2.02,7.04,4.91
	c6.01,11.95,12.01,23.9,17.99,35.87c0.8,1.59,1.83,2.83,3.65,3.16c1.86,0.34,3.44-0.23,4.6-1.72c1.17-1.51,1.34-3.21,0.51-4.94
	c-0.96-1.98-1.96-3.94-2.95-5.91c-1.39-2.78-2.81-5.55-4.18-8.35c-4.85-9.93,1.24-21.54,12.18-22.95
	c9.7-1.25,16.75,5.68,17.87,13.29c0.56,3.8-0.03,7.43-2.06,10.75C83.29,52.5,75.72,64.86,68.1,77.19c-1.87,3.03-4.72,4.39-8.28,4.09
	c-3.23-0.27-5.58-1.96-7.02-4.83c-3.89-7.68-7.73-15.38-11.59-23.07c-2.24-4.46-4.47-8.93-6.72-13.4c-1.07-2.12-3.27-3.17-5.44-2.6
	c-2.18,0.56-3.66,2.53-3.5,4.83c0.05,0.72,0.31,1.47,0.63,2.13c2.27,4.6,4.6,9.18,6.88,13.77c4.77,9.61-0.59,20.72-11.07,22.94
	C20.95,81.26,19.87,81.28,18.81,81.4z"/>
</svg>
